<?xml version="1.0" encoding="UTF-8"?>
<svg id="Layer_2" data-name="Layer 2" xmlns="http://www.w3.org/2000/svg" viewBox="0 0 42.2 16.53">
  <defs>
    <style>
      .cls-1 {
        fill: none;
        stroke: #231f20;
        stroke-miterlimit: 10;
      }
    </style>
  </defs>
  <g id="OBJECT">
    <path class="cls-1" d="m.5,3.43c.37,3.37,1.25,6.62,2.56,9.42.74,1.57,1.76,3.13,3.05,3.18,1.4.06,2.54-1.68,3.28-3.46,1.29-3.08,1.99-6.71,1.99-10.34,0-.68-.11-1.54-.56-1.7-.37-.14-.71.31-.96.74-1.67,2.81-2.9,6.19-3.56,9.81-.14.74-.25,1.52-.14,2.27s.49,1.47,1,1.57c.32.06.64-.12.94-.32,1.73-1.24,3.1-3.62,4.98-4.18,1.3-.38,2.62.19,3.92.57s2.74.55,3.85-.51c-.12.81-.24,1.65-.14,2.48s.45,1.64.99,1.86c.97.4,1.74-1.15,2.4-2.29,1.63-2.86,4.24-4.06,6.75-4.46,2.51-.4,5.06-.13,7.55-.69.95-.22,1.94-.59,2.64-1.58s.96-2.77.34-3.87"/>
  </g>
</svg>