<?xml version="1.0" encoding="UTF-8"?>
<svg id="Layer_2" data-name="Layer 2" xmlns="http://www.w3.org/2000/svg" viewBox="0 0 55.87 45.3">
  <defs>
    <style>
      .cls-1 {
        fill: #fff;
      }
    </style>
  </defs>
  <g id="Layer_1-2" data-name="Layer 1">
    <path class="cls-1" d="m0,0h24.59v8.25c-2.12.16-10.6.43-13.42-3.05,0,0,0,3.86,7.22,5.33,1.52.46-4.15,1.96-4.7,4.28,0,0,1.78,1.75,5.76,1.52l4.18,15.53c.65,1.84,2.5,2.67,4.32,2.8,1.82-.13,3.67-.96,4.32-2.8l4.18-15.53c3.98.23,5.76-1.52,5.76-1.52-.55-2.32-6.22-3.83-4.7-4.28,7.22-1.47,7.22-5.33,7.22-5.33-2.82,3.48-11.31,3.22-13.42,3.05V0h24.59v8.81h-4.72l-15.39,36.49h-15.64L4.72,8.81H0V0Z"/>
  </g>
</svg>