<?xml version="1.0" encoding="UTF-8"?>
<svg xmlns="http://www.w3.org/2000/svg" version="1.1" width="1024" height="1024" viewBox="0 0 500 500"><rect x="0" y="0" width="500" height="500" fill="#ffffff"/><g transform="scale(18.519)"><g transform="translate(1,1)"><g><g transform="translate(3.5,3.5)"><path fill-rule="evenodd" d="M-3.5 -3.5L3.5 -3.5L3.5 3.5L-3.5 3.5ZM-2.5 -2.5L-2.5 2.5L2.5 2.5L2.5 -2.5Z" fill="#000000"/><path fill-rule="evenodd" d="M-1.5 -1.5L1.5 -1.5L1.5 1.5L-1.5 1.5Z" fill="#000000"/></g></g><g><g transform="translate(21.5,3.5)"><g transform="rotate(90)"><path fill-rule="evenodd" d="M-3.5 -3.5L3.5 -3.5L3.5 3.5L-3.5 3.5ZM-2.5 -2.5L-2.5 2.5L2.5 2.5L2.5 -2.5Z" fill="#000000"/><path fill-rule="evenodd" d="M-1.5 -1.5L1.5 -1.5L1.5 1.5L-1.5 1.5Z" fill="#000000"/></g></g></g><g><g transform="translate(3.5,21.5)"><g transform="rotate(-90)"><path fill-rule="evenodd" d="M-3.5 -3.5L3.5 -3.5L3.5 3.5L-3.5 3.5ZM-2.5 -2.5L-2.5 2.5L2.5 2.5L2.5 -2.5Z" fill="#000000"/><path fill-rule="evenodd" d="M-1.5 -1.5L1.5 -1.5L1.5 1.5L-1.5 1.5Z" fill="#000000"/></g></g></g><path fill-rule="evenodd" d="M9 0L9 1L8 1L8 2L10 2L10 3L9 3L9 4L8 4L8 5L9 5L9 4L10 4L10 7L9 7L9 6L8 6L8 7L9 7L9 8L10 8L10 9L8 9L8 10L10 10L10 11L8 11L8 13L7 13L7 12L6 12L6 11L7 11L7 10L6 10L6 11L5 11L5 10L3 10L3 8L2 8L2 10L1 10L1 8L0 8L0 10L1 10L1 11L0 11L0 12L1 12L1 11L2 11L2 10L3 10L3 11L4 11L4 12L6 12L6 13L5 13L5 15L4 15L4 14L3 14L3 13L2 13L2 14L3 14L3 15L1 15L1 14L0 14L0 15L1 15L1 16L0 16L0 17L1 17L1 16L3 16L3 15L4 15L4 16L5 16L5 17L8 17L8 18L9 18L9 17L8 17L8 15L7 15L7 14L10 14L10 13L11 13L11 14L12 14L12 15L9 15L9 16L10 16L10 17L11 17L11 16L12 16L12 15L14 15L14 14L15 14L15 15L17 15L17 16L16 16L16 17L15 17L15 16L14 16L14 17L12 17L12 18L14 18L14 17L15 17L15 19L13 19L13 20L14 20L14 21L13 21L13 23L11 23L11 24L10 24L10 23L9 23L9 22L10 22L10 21L11 21L11 19L9 19L9 20L8 20L8 21L9 21L9 22L8 22L8 23L9 23L9 24L8 24L8 25L11 25L11 24L13 24L13 25L14 25L14 24L15 24L15 23L18 23L18 21L19 21L19 22L21 22L21 23L20 23L20 25L22 25L22 22L21 22L21 20L22 20L22 21L23 21L23 20L25 20L25 18L24 18L24 17L25 17L25 16L24 16L24 17L23 17L23 16L22 16L22 17L23 17L23 20L22 20L22 18L21 18L21 16L20 16L20 15L19 15L19 13L20 13L20 14L21 14L21 15L22 15L22 14L21 14L21 13L20 13L20 11L19 11L19 9L18 9L18 10L17 10L17 11L16 11L16 14L15 14L15 11L14 11L14 10L16 10L16 9L17 9L17 6L16 6L16 5L17 5L17 3L16 3L16 0L15 0L15 1L14 1L14 3L13 3L13 2L12 2L12 1L13 1L13 0L11 0L11 2L10 2L10 0ZM11 2L11 3L12 3L12 4L13 4L13 5L11 5L11 8L12 8L12 10L11 10L11 11L10 11L10 12L9 12L9 13L10 13L10 12L11 12L11 13L12 13L12 14L13 14L13 13L14 13L14 11L13 11L13 8L14 8L14 9L16 9L16 6L15 6L15 5L16 5L16 4L13 4L13 3L12 3L12 2ZM12 6L12 8L13 8L13 6ZM14 6L14 7L15 7L15 6ZM4 8L4 9L5 9L5 8ZM6 8L6 9L7 9L7 8ZM20 8L20 10L21 10L21 11L22 11L22 10L21 10L21 8ZM23 8L23 10L24 10L24 8ZM11 11L11 12L12 12L12 13L13 13L13 11ZM17 11L17 14L18 14L18 11ZM23 11L23 12L22 12L22 13L23 13L23 14L24 14L24 13L25 13L25 11ZM6 13L6 14L7 14L7 13ZM5 15L5 16L7 16L7 15ZM17 17L17 20L20 20L20 17ZM18 18L18 19L19 19L19 18ZM15 19L15 20L16 20L16 19ZM9 20L9 21L10 21L10 20ZM14 21L14 23L15 23L15 21ZM24 22L24 24L23 24L23 25L25 25L25 22ZM16 24L16 25L17 25L17 24Z" fill="#000000"/></g></g></svg>
